<?xml version="1.0" encoding="iso-8859-1"?>
<!-- Generator: Adobe Illustrator 19.0.0, SVG Export Plug-In . SVG Version: 6.00 Build 0)  -->
<svg version="1.1" id="Capa_1" xmlns="http://www.w3.org/2000/svg" xmlns:xlink="http://www.w3.org/1999/xlink" x="0px" y="0px"
	 viewBox="0 0 512.002 512.002" style="enable-background:new 0 0 512.002 512.002;" xml:space="preserve">
<g>
	<g>
		<path d="M511.552,222.359l-26.986-107.945c-2.915-11.66-10.196-21.488-20.436-27.632L324.829,2.202
			c-6.008-3.691-13.943-2.665-18.819,2.588c-0.233,0.252-24.136,25.208-50.009,25.208c-25.855,0-48.629-24.79-48.825-25.006
			c-4.819-5.366-12.763-6.544-18.919-2.84L47.938,86.742c-10.306,6.184-17.588,16.012-20.503,27.672L0.449,222.359
			c-1.545,6.177,0.979,12.656,6.295,16.161l84.257,55.554c0,9.661,0,193.265,0,202.923c0,8.284,6.716,15,15,15h301
			c8.284,0,15-6.716,15-15c0-9.667,0-193.353,0-202.972l83.32-55.547C510.595,234.961,513.091,228.509,511.552,222.359z
			 M256.001,59.997c17.481,0,33.407-6.63,45.82-14.104c-1.842,21.502-17.934,40.189-38.152,43.478
			c-28.306,4.602-51.944-16.733-52.636-43.192C223.173,53.545,238.733,59.997,256.001,59.997z M392.001,481.997h-271v-30h271
			V481.997z M422.001,257.969v-61.972c0-8.284-6.716-15-15-15s-15,6.716-15,15c0,21.429,0,203.425,0,226h-271
			c0-22.562,0-204.576,0-226c0-8.284-6.716-15-15-15s-15,6.716-15,15v62.143l-58.87-38.816l24.408-97.633
			c0.972-3.887,3.399-7.163,6.861-9.241l117.601-70.895v3.442c0,46.198,41.313,81.497,87.484,73.984
			c36.21-5.889,63.516-39.075,63.516-77.193v-0.134l116.627,70.812c3.436,2.062,5.863,5.338,6.835,9.225l24.422,97.689
			L422.001,257.969z"/>
	</g>
</g>
<g>
	<g>
		<path d="M347.001,150.997h-30c-8.284,0-15,6.716-15,15s6.716,15,15,15h30c8.284,0,15-6.716,15-15S355.285,150.997,347.001,150.997
			z"/>
	</g>
</g>
<g>
</g>
<g>
</g>
<g>
</g>
<g>
</g>
<g>
</g>
<g>
</g>
<g>
</g>
<g>
</g>
<g>
</g>
<g>
</g>
<g>
</g>
<g>
</g>
<g>
</g>
<g>
</g>
<g>
</g>
</svg>
